<svg width="493" height="59" viewBox="0 0 493 59" fill="none" xmlns="http://www.w3.org/2000/svg">
    <path d="M81.895 1v50.843" stroke="#4CCBA6" stroke-width=".736" stroke-miterlimit="1.5" stroke-linecap="round" stroke-linejoin="round"/>
    <path d="M41.39 19.009c-7.492-3.338-8.935-3.86-11.602-3.513 0 0-4.389.452-7.874 5.38-.932 1.32-1.511 3.245-1.841 5.44 2.986-.9 12.987-3.227 9.158 7.456-4.433 12.37-16.238 17.76-19.968 18.216a2.996 2.996 0 0 1-1.092.113c-3.021-.3 8.434 2.172 20.679.782 9.255-1.06 16.201-4.782 19.823-10.535 3.481-5.518 3.023-8.088 3.16-9.739 3.545-3.946 5.595-12.484 5.136-12.829-.65-.489-4.832 4.004-15.579-.771zM19.87 36.489c2.597-5.966 2.56-9.53.21-8.557 0 0 .23 3.128-3.058 9.258-1.865 3.489-6.424 10.035-8.952 14.044-1.21 1.921 10.044-10.7 11.8-14.745z" fill="#4CCBA6"/>
    <path d="M58.303 11.562c-.522-.606-2.175 1.44-7.525-.53-1.95-.715-6.156-3.422-9.193-2.72-4.506 1.05-5.553 3.5-5.898 5.039-.541 2.433 8.875 5.577 10.887 5.985 5.529 1.126 8.954.149 10.004-.902.645-.641 2.252-6.266 1.725-6.872zm-17.985 3.134c-.408-.307-1.208-2.362-.884-2.884.322-.522 2.436-1.261 2.821-1.069.406.201 1.302 2.572 1.135 2.91-.157.326-2.666 1.348-3.072 1.043zm7.104 2.808c-.63-.482-1.43-2.218-1.333-2.743.098-.525 2.534-1.405 2.926-1.264.389.142 1.449 2.217 1.148 2.65-.524.763-1.78 1.537-2.741 1.357zm6.88.887c-.45-.199-1.242-1.34-1.413-2.023-.105-.438 2.043-1.844 2.436-1.694.605.236 1.332 2.069 1.208 2.47-.124.403-1.784 1.45-2.23 1.247z" fill="#4CCBA6"/>
    <path d="M58.084 2.638s-.308-.364-5.222.806c-4.905 1.174-5.11 3.83-5.11 3.83.972 2.626 7.884 4.295 9.954 2.738 2.071-1.559.378-7.374.378-7.374z" fill="#4CCBA6"/>
    <path d="M103.255 42.611c0 .497.446.944.943.944h4.121c.745 0 1.043-.398 1.043-.944V32.085c.497-2.036 2.036-3.526 4.32-3.526 2.383 0 3.923 1.738 3.923 4.469v9.583c0 .497.397.944.943.944h4.022c.497 0 .944-.447.944-.944v-9.533c0-5.016-2.582-9.882-8.889-9.882-2.333 0-4.27.894-5.263 1.639V9.74c0-.497-.447-.943-.943-.943h-4.221c-.497 0-.943.446-.943.943v32.871zM127.534 33.567c0 5.71 4.568 10.477 10.179 10.477 5.611 0 10.179-4.766 10.179-10.477 0-5.61-4.568-10.378-10.179-10.378-5.611 0-10.179 4.767-10.179 10.378zm5.412 0c0-2.78 2.086-5.015 4.767-5.015 2.632 0 4.767 2.235 4.767 5.015 0 2.83-2.135 5.115-4.767 5.115-2.681 0-4.767-2.284-4.767-5.115zM153.358 37.644c0 4.022 1.688 6.405 5.512 6.405 2.433 0 5.66-1.142 5.908-1.29.497-.2.745-.696.547-1.193l-.993-3.128c-.149-.496-.547-.745-1.093-.546-.546.199-1.589.546-2.433.546-.794 0-1.539-.198-1.539-1.589v-7.944h4.369a.943.943 0 0 0 .944-.944v-3.327c0-.546-.397-.943-.944-.943h-4.369V18.13c0-.497-.397-.944-.894-.944l-4.072.05c-.496 0-.943.447-.943.943v5.512h-1.688c-.497 0-.894.397-.894.943v3.327c0 .497.397.944.894.944h1.688v8.739zM167.955 33.617c0 5.71 4.221 10.427 10.179 10.427 3.228 0 5.76-1.191 7.399-2.73.496-.398.397-.944.05-1.292l-2.036-2.333c-.348-.398-.795-.298-1.291 0-.894.645-2.334 1.241-3.873 1.241-2.88 0-4.618-2.284-4.767-4.32h12.711c.447 0 .894-.347.944-.844.049-.348.099-.993.099-1.34 0-5.363-4.171-9.237-9.285-9.237-5.909 0-10.13 4.817-10.13 10.428zm6.108-2.483a3.912 3.912 0 0 1 3.873-3.376c1.887 0 3.476 1.539 3.624 3.376h-7.497zM191.538 42.611c0 .497.447.944.943.944h4.171c.497 0 .944-.447.944-.944V9.74c0-.497-.447-.943-.944-.943h-4.171c-.496 0-.943.446-.943.943v32.871zM202.062 33.617c0 5.71 4.221 10.427 10.179 10.427 3.228 0 5.76-1.191 7.399-2.73.496-.398.397-.944.05-1.292l-2.036-2.333c-.348-.398-.795-.298-1.291 0-.894.645-2.334 1.241-3.873 1.241-2.88 0-4.618-2.284-4.767-4.32h12.711c.447 0 .894-.347.944-.844.05-.348.099-.993.099-1.34 0-5.363-4.171-9.237-9.285-9.237-5.909 0-10.13 4.817-10.13 10.428zm6.108-2.483a3.912 3.912 0 0 1 3.873-3.376c1.887 0 3.476 1.539 3.625 3.376h-7.498zM224.857 42.207c1.043.795 3.327 1.837 6.604 1.837 5.015 0 7.895-2.78 7.895-6.057 0-3.873-2.88-5.512-6.703-7.002-1.838-.744-2.731-1.043-2.731-1.936 0-.646.496-1.142 1.688-1.142 1.887 0 4.121 1.043 4.121 1.043.398.148.944.099 1.192-.348l1.241-2.532c.249-.497 0-1.043-.446-1.341-1.043-.695-3.178-1.54-6.108-1.54-5.065 0-7.299 2.83-7.299 5.86 0 3.029 1.787 5.065 5.611 6.554 2.631 1.043 3.327 1.59 3.327 2.483 0 .844-.696 1.241-1.689 1.241-2.284 0-4.518-1.191-4.518-1.191-.447-.249-.944-.15-1.142.347l-1.341 2.681c-.199.398 0 .795.298 1.043zM254.001 33.632c0 6.008 4.816 10.427 10.427 10.427 4.121 0 7.051-2.632 7.796-3.823.199-.298.099-.547-.149-.795l-.546-.496c-.298-.298-.596-.298-.944.099-.546.596-2.482 2.93-6.207 2.93-4.419 0-8.143-3.576-8.143-8.392 0-4.717 3.675-8.243 8.193-8.243 3.128 0 5.214 1.738 5.71 2.284.298.298.696.447 1.043.1l.497-.497c.298-.248.347-.596.099-.894-.894-1.142-3.476-3.128-7.349-3.128-5.611 0-10.427 4.47-10.427 10.428zM276.798 33.582c0 5.81 4.369 10.477 9.98 10.477 5.562 0 9.981-4.667 9.981-10.477 0-5.66-4.419-10.378-9.981-10.378-5.611 0-9.98 4.717-9.98 10.378zm2.135 0c0-4.568 3.426-8.292 7.845-8.292 4.37 0 7.796 3.724 7.796 8.292 0 4.717-3.426 8.441-7.796 8.441-4.419 0-7.845-3.724-7.845-8.441zM302.812 42.917c0 .348.198.645.546.645h.943c.447 0 .646-.248.646-.645V28.765c.198-.248 3.029-3.426 7.1-3.426 3.774 0 5.909 2.384 5.909 6.952v10.626c0 .348.298.645.646.645h.894a.657.657 0 0 0 .645-.645V32.291c0-5.561-2.433-9.087-7.994-9.087-3.973 0-6.704 2.433-7.349 3.128l-.199-2.135c-.05-.298-.248-.496-.596-.496h-.496c-.398 0-.695.298-.695.645v18.571zM336.725 33.582c0 5.81 3.725 10.477 9.782 10.477 3.079 0 6.207-1.34 7.2-2.334.298-.298.348-.596.199-.794l-.497-.695c-.248-.348-.446-.298-.893 0-1.192.794-3.228 1.837-5.86 1.837-4.469 0-7.547-3.575-7.746-7.846h15.84c.745 0 .745-1.142.745-1.936 0-5.263-3.774-9.087-8.988-9.087-6.057 0-9.782 4.717-9.782 10.378zm2.235-1.142c.248-4.072 3.178-7.25 7.547-7.25 4.469 0 6.803 3.377 6.803 7.25h-14.35zM361.361 42.917c0 .348.198.645.546.645h.943c.447 0 .646-.248.646-.645V28.765c.198-.248 3.029-3.426 7.101-3.426 3.773 0 5.908 2.384 5.908 6.952v10.626c0 .348.298.645.646.645h.894a.657.657 0 0 0 .645-.645V32.291c0-5.561-2.433-9.087-7.994-9.087-3.973 0-6.704 2.433-7.349 3.128l-.199-2.135c-.049-.298-.248-.496-.596-.496h-.496c-.397 0-.695.298-.695.645v18.571zM384.44 33.632c0 6.008 4.816 10.427 10.427 10.427 4.121 0 7.051-2.632 7.796-3.823.198-.298.099-.547-.149-.795l-.546-.496c-.298-.298-.596-.298-.944.099-.546.596-2.483 2.93-6.207 2.93-4.419 0-8.143-3.576-8.143-8.392 0-4.717 3.674-8.243 8.193-8.243 3.128 0 5.214 1.738 5.71 2.284.298.298.696.447 1.043.1l.497-.497c.298-.248.347-.596.099-.894-.894-1.142-3.476-3.128-7.349-3.128-5.611 0-10.427 4.47-10.427 10.428zM407.133 37.455c0 4.072 2.83 6.604 6.505 6.604 3.178 0 5.611-1.639 6.902-2.83l.199 1.787c.099.348.248.547.595.547h.596a.657.657 0 0 0 .646-.646V31.894c0-5.065-.249-8.69-6.306-8.69-4.122 0-6.654 1.39-6.803 1.49-.248.1-.447.298-.298.745l.248.596c.1.347.348.546.745.397.447-.15 2.681-1.34 5.959-1.34 3.922 0 4.369 2.184 4.369 6.553-.546-.198-2.731-.893-5.015-.893-5.214 0-8.342 2.88-8.342 6.703zm2.036-.05c0-2.93 2.532-4.866 6.306-4.866 2.384 0 4.37.745 5.015 1.043v5.462c-.943 1.241-3.575 3.079-6.604 3.079-2.731 0-4.717-1.838-4.717-4.718zM429.93 42.917c0 .348.199.645.547.645h.943c.447 0 .646-.248.646-.645V28.765c.198-.248 3.029-3.426 7.1-3.426 3.774 0 5.909 2.384 5.909 6.952v10.626c0 .348.298.645.646.645h.893a.657.657 0 0 0 .646-.645V32.291c0-5.561-2.433-9.087-7.994-9.087-3.973 0-6.704 2.433-7.349 3.128l-.199-2.135c-.05-.298-.248-.496-.596-.496h-.496c-.398 0-.696.298-.696.645v18.571zM455.346 38.441c0 3.178.347 5.611 4.469 5.611 2.83 0 5.015-1.241 5.76-1.837.298-.199.347-.497.149-.844l-.348-.596c-.149-.248-.348-.447-.794-.198-.646.397-2.781 1.34-4.519 1.34-2.334 0-2.582-1.29-2.582-3.625V25.63h6.902c.397 0 .645-.248.645-.645v-.645a.626.626 0 0 0-.645-.646h-6.902v-5.462a.657.657 0 0 0-.646-.645l-.844.05a.626.626 0 0 0-.645.645v5.412h-2.334c-.348 0-.596.149-.596.497v.794c0 .397.099.646.596.646h2.334v12.81zM469.359 33.582c0 5.81 4.369 10.477 9.98 10.477 5.562 0 9.981-4.667 9.981-10.477 0-5.66-4.419-10.378-9.981-10.378-5.611 0-9.98 4.717-9.98 10.378zm2.135 0c0-4.568 3.426-8.292 7.845-8.292 4.37 0 7.796 3.724 7.796 8.292 0 4.717-3.426 8.441-7.796 8.441-4.419 0-7.845-3.724-7.845-8.441z" fill="#29305F"/>
</svg>
