<?xml version="1.0" encoding="UTF-8" standalone="no"?>
<!DOCTYPE svg PUBLIC "-//W3C//DTD SVG 1.1//EN" "http://www.w3.org/Graphics/SVG/1.1/DTD/svg11.dtd">
<svg width="100%" height="100%" viewBox="0 0 209 52" version="1.1" xmlns="http://www.w3.org/2000/svg" xmlns:xlink="http://www.w3.org/1999/xlink" xml:space="preserve" xmlns:serif="http://www.serif.com/" style="fill-rule:evenodd;clip-rule:evenodd;stroke-linejoin:round;stroke-miterlimit:2;">
    <g transform="matrix(1,0,0,1,-55.9314,-188.39)">
        <g transform="matrix(1,0,0,1,75.23,203.904)">
            <text x="0px" y="0px" style="font-family:'HurmeGeometricSans4-Black', 'Hurme Geometric Sans 4', sans-serif;font-weight:900;font-size:22.265px;fill:rgb(255,78,0);">Hot</text>
        </g>
        <g transform="matrix(1,0,0,1,114.239,203.904)">
            <text x="0px" y="0px" style="font-family:'HurmeGeometricSans4-Black', 'Hurme Geometric Sans 4', sans-serif;font-weight:900;font-size:22.265px;fill:rgb(255,78,0);">el<tspan x="20.493px 33.605px " y="0px 0px ">es</tspan></text>
        </g>
    </g>
    <g transform="matrix(1,0,0,1,-55.9314,-188.39)">
        <g transform="matrix(1,0,0,1,54.92,225.184)">
            <text x="0px" y="0px" style="font-family:'HurmeGeometricSans4-Bold', 'Hurme Geometric Sans 4', sans-serif;font-weight:700;font-size:36.339px;fill:rgb(76,203,166);">c</text>
        </g>
        <g transform="matrix(1,0,0,1,73.763,225.184)">
            <text x="0px" y="0px" style="font-family:'HurmeGeometricSans4-Bold', 'Hurme Geometric Sans 4', sans-serif;font-weight:700;font-size:36.339px;fill:rgb(76,203,166);">on</text>
        </g>
    </g>
    <g transform="matrix(1,0,0,1,-55.9314,-188.39)">
        <g transform="matrix(1,0,0,1,117.784,225.184)">
            <text x="0px" y="0px" style="font-family:'HurmeGeometricSans4-Bold', 'Hurme Geometric Sans 4', sans-serif;font-weight:700;font-size:36.339px;fill:white;">en</text>
        </g>
        <g transform="matrix(1,0,0,1,160.688,225.184)">
            <text x="0px" y="0px" style="font-family:'HurmeGeometricSans4-Bold', 'Hurme Geometric Sans 4', sans-serif;font-weight:700;font-size:36.339px;fill:white;">c<tspan x="18.844px 42.638px 64.089px " y="0px 0px 0px ">ant</tspan></text>
        </g>
    </g>
    <g transform="matrix(1,0,0,1,-55.9314,-188.39)">
        <g transform="matrix(1,0,0,1,183.983,239.236)">
            <text x="0px" y="0px" style="font-family:'HurmeGeometricSans4-Bold', 'Hurme Geometric Sans 4', sans-serif;font-weight:700;font-size:13.504px;fill:white;">c</text>
        </g>
        <g transform="matrix(1,0,0,1,190.985,239.236)">
            <text x="0px" y="0px" style="font-family:'HurmeGeometricSans4-Bold', 'Hurme Geometric Sans 4', sans-serif;font-weight:700;font-size:13.504px;fill:white;">om.mx</text>
        </g>
    </g>
    <g transform="matrix(1,0,0,1,-55.9314,-177.166)">
        <path d="M259.012,205.192C259.012,205.192 260.609,205.142 261.851,205.103C262.702,205.076 263.467,205.616 263.727,206.426C263.968,207.177 264.277,208.138 264.57,209.05C264.773,209.68 264.634,210.37 264.203,210.873C263.773,211.377 263.112,211.62 262.458,211.518C262.143,211.468 261.838,211.421 261.566,211.378C261.053,211.297 260.594,211.011 260.297,210.584C259.849,209.904 258.429,210.033 257.415,209.824C258.504,208.477 258.978,206.912 259.012,205.192Z" style="fill:rgb(76,203,166);"/>
    </g>
    <g transform="matrix(1,0,0,1,-55.9314,-209.275)">
        <path d="M247.743,226.033C247.743,226.033 247.389,224.637 247.116,223.561C246.928,222.82 246.315,222.263 245.56,222.145C244.81,222.029 243.838,221.878 242.985,221.745C242.469,221.665 241.943,221.799 241.53,222.117C241.116,222.435 240.85,222.909 240.795,223.427C240.782,223.543 240.77,223.655 240.759,223.763C240.697,224.345 240.905,224.924 241.325,225.332C242.072,226.06 243.181,227.14 243.181,227.14C244.574,226.198 246.102,225.857 247.743,226.033Z" style="fill:rgb(76,203,166);"/>
    </g>
    <g transform="matrix(1,0,0,1,-55.9314,-158.332)">
        <path d="M249.152,196.138C249.152,196.138 248.795,198.048 248.566,199.278C248.448,199.911 248.019,200.441 247.425,200.689C246.837,200.934 246.075,201.252 245.427,201.522C244.635,201.852 243.72,201.614 243.191,200.939C243.112,200.838 243.032,200.736 242.952,200.635C242.374,199.897 242.417,198.847 243.055,198.16C243.946,197.2 245.05,196.01 245.05,196.01C246.168,196.24 247.537,196.281 249.152,196.138Z" style="fill:rgb(76,203,166);"/>
    </g>
    <g transform="matrix(1,0,0,1,-55.9314,-181.408)">
        <path d="M237.676,207.644C237.676,207.644 236.647,207.688 235.743,207.727C234.936,207.762 234.239,208.3 234.002,209.072C233.836,209.609 233.646,210.229 233.483,210.757C233.259,211.484 233.504,212.273 234.1,212.746C234.191,212.818 234.281,212.89 234.365,212.957C234.698,213.221 235.143,213.294 235.542,213.15C236.489,212.808 238.149,212.209 238.149,212.209C237.599,211.35 237.17,208.937 237.676,207.644Z" style="fill:rgb(76,203,166);"/>
    </g>
    <g transform="matrix(1,0,0,1,-55.9314,-201.842)">
        <path d="M259.288,217.748C259.482,217.751 259.667,217.835 259.797,217.979C259.927,218.124 259.991,218.315 259.974,218.509C259.886,219.532 259.738,221.242 259.738,221.242C259.738,221.242 258.745,222.5 258.041,223.393C257.896,223.577 257.668,223.676 257.435,223.657C257.201,223.638 256.992,223.503 256.879,223.299C256.158,221.97 255.234,221.049 254.153,220.458C253.941,220.351 253.8,220.141 253.779,219.905C253.759,219.668 253.862,219.438 254.052,219.295C254.949,218.609 256.17,217.696 256.17,217.696C256.17,217.696 258.163,217.729 259.288,217.748Z" style="fill:rgb(76,203,166);"/>
    </g>
    <g transform="matrix(1,0,0,1,-55.9314,-167.066)">
        <path d="M238.099,205.229C237.951,205.323 237.758,205.301 237.634,205.178C237.51,205.054 237.489,204.86 237.583,204.713C238.286,203.606 239.215,202.146 239.654,201.456C239.715,201.361 239.816,201.298 239.929,201.285C240.042,201.273 240.154,201.312 240.234,201.393C240.569,201.727 241.084,202.242 241.419,202.577C241.499,202.657 241.538,202.77 241.526,202.882C241.514,202.995 241.451,203.096 241.355,203.157C240.665,203.596 239.205,204.525 238.099,205.229Z" style="fill:rgb(76,203,166);"/>
    </g>
    <g transform="matrix(1,0,0,1,-55.9314,-184.39)">
        <path d="M238.445,211.966C238.445,209.373 239.416,207.107 241.356,205.166C243.297,203.226 245.563,202.255 248.156,202.255C250.766,202.255 253.041,203.226 254.982,205.166C256.897,207.082 257.855,209.344 257.855,211.954C257.855,214.58 256.893,216.855 254.969,218.779C253.045,220.703 250.77,221.665 248.144,221.665C245.534,221.665 243.272,220.707 241.356,218.792C239.416,216.851 238.445,214.576 238.445,211.966ZM248.265,218.624L248.265,217.093C248.265,216.69 248.724,216.362 248.333,216.257L245.744,215.733C245.436,215.651 245.107,215.739 244.882,215.964C244.745,216.101 244.585,216.261 244.437,216.429C244.25,216.616 244.158,216.876 244.184,217.139C244.211,217.401 244.354,217.638 244.574,217.783C245.625,218.458 246.798,218.795 248.095,218.795C248.189,218.794 248.265,218.718 248.265,218.624ZM250.471,218.348C251.354,218.005 252.165,217.464 252.903,216.726C253.395,216.234 253.799,215.712 254.124,215.167C254.271,214.904 254.275,214.584 254.134,214.318C253.994,214.051 253.728,213.873 253.428,213.845L252.559,213.763C252.294,213.738 252.032,213.832 251.844,214.02L249.743,215.621C249.656,215.708 249.275,216.658 249.274,216.78C249.274,216.965 249.274,217.24 249.288,217.524C249.288,217.812 249.429,218.081 249.665,218.245C249.9,218.409 250.202,218.448 250.471,218.348ZM243.712,215.706L244.168,215.25C244.393,215.025 244.481,214.696 244.399,214.388L243.9,212.529C243.796,212.139 243.442,211.867 243.038,211.867L241.463,211.867C241.382,211.867 241.316,211.932 241.315,212.013L241.315,212.015C241.315,213.315 241.66,214.497 242.337,215.568C242.485,215.791 242.726,215.936 242.992,215.963C243.258,215.989 243.523,215.895 243.712,215.706ZM242.592,210.857C242.963,210.857 243.32,210.857 243.485,210.856C243.541,210.856 243.592,210.83 243.625,210.785C243.64,210.763 243.658,210.742 243.678,210.722L246.094,208.306C246.289,208.112 246.383,207.838 246.349,207.565C246.319,207.323 246.28,207.007 246.231,206.697C246.195,206.403 246.014,206.147 245.749,206.015C245.484,205.884 245.171,205.893 244.914,206.041C244.387,206.354 243.885,206.75 243.406,207.229C242.662,207.972 242.117,208.782 241.756,209.652C241.654,209.926 241.692,210.233 241.858,210.473C242.025,210.714 242.299,210.857 242.592,210.857ZM252.607,208.239L251.624,209.388C251.488,209.524 251.985,210.105 252.264,210.815C252.447,211.281 252.227,212.087 252.147,212.411C252.243,212.771 252.592,212.751 252.963,212.786C253.27,212.815 253.647,212.851 253.986,212.883C254.235,212.906 254.482,212.824 254.667,212.657C254.853,212.489 254.96,212.252 254.962,212.002L254.962,211.929C254.978,210.625 254.647,209.445 253.984,208.38C253.837,208.156 253.596,208.01 253.329,207.982C253.062,207.955 252.797,208.049 252.607,208.239ZM249.727,208.933L247.58,208.879C247.272,208.797 246.944,208.885 246.718,209.11L244.962,210.866C244.737,211.091 244.649,211.42 244.731,211.728L245.374,214.127C245.457,214.435 245.697,214.675 246.005,214.758L247.392,215.234C248.024,215.709 249.916,215.403 249.817,214.785L250.358,214.185L251.022,213.414C251.247,213.188 251.335,212.86 251.253,212.552L251.443,211.097L250.358,209.564C250.276,209.256 250.035,209.015 249.727,208.933ZM247.191,206.151L246.833,207.456C246.877,207.817 247.136,208.114 247.487,208.208L250.24,208.546C250.548,208.629 250.877,208.541 251.102,208.315C251.327,208.091 251.623,207.795 251.882,207.515C252.069,207.329 252.162,207.068 252.135,206.805C252.108,206.543 251.965,206.306 251.744,206.161C250.676,205.474 249.488,205.14 248.182,205.148C248.141,205.148 248.1,205.149 248.06,205.149C247.807,205.154 247.568,205.266 247.402,205.457C247.237,205.648 247.16,205.9 247.191,206.151Z" style="fill:rgb(76,203,166);fill-rule:nonzero;"/>
    </g>
</svg>
