<svg width="250" height="50" viewBox="0 0 250 50" fill="none" xmlns="http://www.w3.org/2000/svg">
    <path d="M70.556 1v48.543" stroke="#fff" stroke-width=".5" stroke-miterlimit="1.5" stroke-linecap="round" stroke-linejoin="round"/>
    <path d="M35.576 15.561c-6.44-2.87-7.68-3.318-9.972-3.02 0 0-3.773.39-6.768 4.625-.801 1.134-1.3 2.79-1.583 4.675 2.567-.773 11.163-2.773 7.872 6.41-3.81 10.632-13.957 15.265-17.163 15.657a2.577 2.577 0 0 1-.938.096c-2.598-.258 7.249 1.868 17.773.673 7.955-.911 13.926-4.11 17.039-9.055 2.992-4.743 2.598-6.952 2.716-8.371 3.047-3.391 4.809-10.73 4.414-11.027-.558-.42-4.153 3.442-13.39-.663zM17.078 30.585c2.232-5.127 2.2-8.19.181-7.354 0 0 .198 2.689-2.63 7.957-1.602 2.999-5.52 8.625-7.693 12.071-1.04 1.652 8.633-9.196 10.142-12.674z" fill="#fff"/>
    <path d="M50.115 9.138c-.449-.52-1.87 1.237-6.468-.455-1.676-.615-5.291-2.941-7.902-2.337-3.873.901-4.773 3.007-5.07 4.33-.465 2.091 7.629 4.794 9.358 5.144 4.752.968 7.696.128 8.6-.775.553-.55 1.934-5.385 1.482-5.907zm-15.459 2.694c-.351-.264-1.038-2.03-.76-2.48.277-.447 2.094-1.083 2.425-.917.35.173 1.119 2.21.975 2.5-.134.28-2.29 1.16-2.64.897zm6.106 2.413c-.542-.413-1.229-1.905-1.146-2.357.084-.451 2.178-1.208 2.516-1.087.333.122 1.245 1.906.986 2.278-.45.656-1.53 1.321-2.356 1.166zm5.914.763c-.388-.17-1.068-1.152-1.215-1.739-.09-.376 1.756-1.585 2.094-1.456.52.203 1.145 1.778 1.039 2.124-.107.346-1.534 1.245-1.918 1.071z" fill="#fff"/>
    <path d="M49.925 1.495s-.265-.314-4.488.692c-4.217 1.01-4.392 3.292-4.392 3.292.835 2.258 6.776 3.692 8.555 2.353 1.78-1.34.325-6.337.325-6.337zM85.473 24.613c0 .347.312.66.66.66h2.877c.52 0 .728-.278.728-.66v-7.35c.347-1.422 1.422-2.463 3.017-2.463 1.664 0 2.74 1.214 2.74 3.121v6.692c0 .347.277.66.658.66h2.809a.682.682 0 0 0 .659-.66v-6.657c0-3.502-1.803-6.9-6.207-6.9-1.63 0-2.982.624-3.676 1.144V1.659A.682.682 0 0 0 89.08 1h-2.947a.682.682 0 0 0-.659.659v22.954zM102.431 18.276c0 3.987 3.19 7.316 7.109 7.316 3.918 0 7.108-3.329 7.108-7.316 0-3.918-3.19-7.247-7.108-7.247-3.919 0-7.109 3.329-7.109 7.247zm3.78 0c0-1.942 1.456-3.502 3.329-3.502 1.837 0 3.328 1.56 3.328 3.502 0 1.976-1.491 3.571-3.328 3.571-1.873 0-3.329-1.595-3.329-3.571zM120.464 21.137c0 2.81 1.179 4.473 3.849 4.473 1.699 0 3.953-.797 4.126-.901.347-.139.52-.485.382-.832l-.694-2.185c-.104-.346-.381-.52-.763-.381-.381.139-1.109.381-1.699.381-.555 0-1.075-.138-1.075-1.11v-5.547h3.052a.658.658 0 0 0 .658-.66v-2.322a.637.637 0 0 0-.658-.66h-3.052V7.51c0-.346-.277-.658-.624-.658l-2.843.034a.682.682 0 0 0-.659.66v3.848h-1.179c-.347 0-.624.277-.624.659v2.323c0 .347.277.659.624.659h1.179v6.102zM130.655 18.31c0 3.988 2.947 7.282 7.108 7.282 2.254 0 4.022-.832 5.167-1.907.346-.277.277-.659.034-.901l-1.421-1.63c-.243-.278-.555-.208-.902 0-.624.45-1.63.867-2.704.867-2.012 0-3.225-1.595-3.329-3.017h8.876a.67.67 0 0 0 .659-.59c.035-.242.07-.693.07-.936 0-3.745-2.913-6.45-6.485-6.45-4.126 0-7.073 3.364-7.073 7.283zm4.265-1.733a2.731 2.731 0 0 1 2.704-2.358c1.318 0 2.428 1.075 2.532 2.358h-5.236zM147.121 24.613c0 .347.312.66.659.66h2.913a.683.683 0 0 0 .659-.66V1.66a.683.683 0 0 0-.659-.659h-2.913a.682.682 0 0 0-.659.659v22.954zM154.479 18.31c0 3.988 2.947 7.282 7.108 7.282 2.254 0 4.022-.832 5.167-1.907.346-.277.277-.659.034-.901l-1.421-1.63c-.243-.278-.555-.208-.902 0-.624.45-1.63.867-2.705.867-2.011 0-3.224-1.595-3.328-3.017h8.876a.67.67 0 0 0 .659-.59c.035-.242.07-.693.07-.936 0-3.745-2.913-6.45-6.485-6.45-4.126 0-7.073 3.364-7.073 7.283zm4.265-1.733a2.731 2.731 0 0 1 2.704-2.358c1.318 0 2.428 1.075 2.532 2.358h-5.236zM170.389 24.31c.728.554 2.323 1.282 4.611 1.282 3.502 0 5.514-1.942 5.514-4.23 0-2.705-2.012-3.849-4.681-4.89-1.283-.52-1.908-.727-1.908-1.352 0-.45.347-.797 1.179-.797 1.318 0 2.878.728 2.878.728.278.104.659.07.833-.243l.866-1.768c.174-.347 0-.728-.312-.936-.728-.486-2.219-1.075-4.265-1.075-3.536 0-5.097 1.976-5.097 4.091 0 2.116 1.248 3.537 3.918 4.578 1.838.728 2.324 1.109 2.324 1.733 0 .59-.486.867-1.179.867-1.595 0-3.156-.832-3.156-.832-.312-.174-.659-.104-.797.243l-.936 1.872c-.139.277 0 .555.208.728zM85.674 42.278c0 4.195 3.363 7.281 7.281 7.281 2.878 0 4.924-1.837 5.444-2.67.139-.208.07-.38-.104-.554l-.381-.347c-.208-.208-.416-.208-.659.07-.381.415-1.734 2.045-4.334 2.045-3.086 0-5.687-2.497-5.687-5.86 0-3.294 2.566-5.756 5.721-5.756 2.185 0 3.641 1.214 3.988 1.595.208.208.485.312.728.07l.347-.347c.208-.174.242-.416.07-.624-.625-.798-2.428-2.185-5.133-2.185-3.918 0-7.281 3.12-7.281 7.282zM101.589 42.243c0 4.057 3.051 7.316 6.97 7.316 3.883 0 6.969-3.259 6.969-7.316 0-3.953-3.086-7.247-6.969-7.247-3.919 0-6.97 3.294-6.97 7.247zm1.491 0c0-3.19 2.393-5.79 5.479-5.79 3.051 0 5.444 2.6 5.444 5.79 0 3.294-2.393 5.895-5.444 5.895-3.086 0-5.479-2.6-5.479-5.895zM119.757 48.762c0 .243.138.45.381.45h.659c.312 0 .451-.173.451-.45V38.88c.138-.174 2.115-2.393 4.958-2.393 2.635 0 4.126 1.664 4.126 4.855v7.42c0 .243.209.45.451.45h.624a.459.459 0 0 0 .451-.45v-7.42c0-3.884-1.699-6.346-5.582-6.346-2.774 0-4.682 1.7-5.132 2.185l-.139-1.491c-.035-.209-.173-.347-.416-.347h-.347c-.277 0-.485.208-.485.45v12.969zM143.439 42.243c0 4.057 2.601 7.316 6.831 7.316 2.15 0 4.335-.936 5.028-1.63.208-.207.243-.415.139-.554l-.347-.486c-.173-.242-.312-.208-.624 0-.832.555-2.254 1.283-4.092 1.283-3.12 0-5.27-2.496-5.409-5.478h11.061c.52 0 .52-.798.52-1.352 0-3.676-2.635-6.346-6.276-6.346-4.23 0-6.831 3.294-6.831 7.247zm1.561-.797c.173-2.844 2.219-5.063 5.27-5.063 3.121 0 4.751 2.358 4.751 5.063H145zM160.643 48.762c0 .243.139.45.382.45h.659c.312 0 .45-.173.45-.45V38.88c.139-.174 2.115-2.393 4.959-2.393 2.635 0 4.126 1.664 4.126 4.855v7.42c0 .243.208.45.451.45h.624a.459.459 0 0 0 .451-.45v-7.42c0-3.884-1.699-6.346-5.583-6.346-2.774 0-4.681 1.7-5.132 2.185l-.138-1.491c-.035-.209-.174-.347-.416-.347h-.347c-.278 0-.486.208-.486.45v12.969zM176.768 42.278c0 4.195 3.364 7.281 7.282 7.281 2.878 0 4.924-1.837 5.444-2.67.139-.208.069-.38-.104-.554l-.382-.347c-.208-.208-.416-.208-.658.07-.382.415-1.734 2.045-4.335 2.045-3.086 0-5.686-2.497-5.686-5.86 0-3.294 2.565-5.756 5.721-5.756 2.184 0 3.641 1.214 3.987 1.595.209.208.486.312.729.07l.346-.347c.208-.174.243-.416.07-.624-.624-.798-2.427-2.185-5.132-2.185-3.918 0-7.282 3.12-7.282 7.282zM192.609 44.948c0 2.843 1.977 4.611 4.543 4.611 2.219 0 3.918-1.144 4.82-1.976l.138 1.248c.07.243.174.382.416.382h.416a.459.459 0 0 0 .451-.451v-7.698c0-3.537-.173-6.068-4.403-6.068-2.878 0-4.647.971-4.751 1.04-.173.07-.312.208-.208.52l.173.416c.07.243.243.382.521.278.312-.104 1.872-.936 4.161-.936 2.739 0 3.051 1.525 3.051 4.577-.382-.139-1.907-.624-3.502-.624-3.641 0-5.826 2.01-5.826 4.68zm1.422-.035c0-2.046 1.768-3.398 4.404-3.398 1.664 0 3.051.52 3.502.728v3.814c-.659.867-2.497 2.15-4.612 2.15-1.907 0-3.294-1.283-3.294-3.294zM208.525 48.762c0 .243.138.45.381.45h.659c.312 0 .451-.173.451-.45V38.88c.138-.174 2.115-2.393 4.958-2.393 2.636 0 4.127 1.664 4.127 4.855v7.42c0 .243.208.45.45.45h.624a.459.459 0 0 0 .451-.45v-7.42c0-3.884-1.699-6.346-5.582-6.346-2.774 0-4.682 1.7-5.132 2.185l-.139-1.491c-.035-.209-.173-.347-.416-.347h-.347c-.277 0-.485.208-.485.45v12.969zM226.284 45.624c0 2.22.243 3.919 3.121 3.919 1.976 0 3.502-.867 4.022-1.283.208-.14.243-.347.104-.59l-.243-.416c-.104-.173-.242-.312-.554-.139-.451.278-1.942.937-3.156.937-1.629 0-1.803-.902-1.803-2.532v-8.842h4.82c.277 0 .451-.173.451-.45v-.451a.438.438 0 0 0-.451-.451h-4.82v-3.814a.459.459 0 0 0-.451-.451l-.589.035a.437.437 0 0 0-.451.45v3.78h-1.63c-.242 0-.416.104-.416.347v.554c0 .278.07.451.416.451h1.63v8.946zM236.061 42.243c0 4.057 3.051 7.316 6.969 7.316 3.884 0 6.97-3.259 6.97-7.316 0-3.953-3.086-7.247-6.97-7.247-3.918 0-6.969 3.294-6.969 7.247zm1.491 0c0-3.19 2.392-5.79 5.478-5.79 3.052 0 5.444 2.6 5.444 5.79 0 3.294-2.392 5.895-5.444 5.895-3.086 0-5.478-2.6-5.478-5.895z" fill="#fff"/>
</svg>
